<?xml version="1.0" encoding="utf-8"?>
<!-- Generator: Adobe Illustrator 19.0.1, SVG Export Plug-In . SVG Version: 6.00 Build 0)  -->
<svg version="1.1" id="area_1_" xmlns="http://www.w3.org/2000/svg" xmlns:xlink="http://www.w3.org/1999/xlink" x="0px" y="0px"
	 viewBox="0 0 35 40" style="enable-background:new 0 0 35 40;" xml:space="preserve">
<style type="text/css">
	.st0{fill-rule:evenodd;clip-rule:evenodd;fill:#333333;}
</style>
<g id="area">
	<g>
		<path class="st0" d="M21.5,4.9h0.2c0.5,0,0.9-0.4,0.9-0.9c0-0.5-0.4-0.9-0.9-0.9h-0.2c-0.5,0-0.9,0.4-0.9,0.9
			C20.6,4.5,21,4.9,21.5,4.9z M21.8,24.3c0,0.5,0.4,0.9,0.9,0.9h0.2c0.5,0,0.9-0.4,0.9-0.9c0-0.5-0.4-0.9-0.9-0.9h-0.2
			C22.2,23.5,21.8,23.8,21.8,24.3z M18.8,24.3c0,1.9,1.3,3.5,3.1,3.9v2.7c0,0.5,0.4,0.9,0.9,0.9c0.5,0,0.9-0.4,0.9-0.9v-2.7
			c1.8-0.4,3.1-2,3.1-3.9c0-2.2-1.8-4-4-4C20.6,20.3,18.8,22.1,18.8,24.3z M25.1,24.3c0,1.2-1,2.3-2.3,2.3c-1.2,0-2.3-1-2.3-2.3
			c0-1.2,1-2.3,2.3-2.3C24.1,22.1,25.1,23.1,25.1,24.3z M12.6,13.6h0.2c0.5,0,0.9-0.4,0.9-0.9c0-0.5-0.4-0.9-0.9-0.9h-0.2
			c-0.5,0-0.9,0.4-0.9,0.9C11.7,13.2,12.1,13.6,12.6,13.6z M32.4,15.1l-1.5-0.5l-1.2-8.3c-0.1-1-0.7-1.8-1.5-2.3
			c-0.4-0.2-1-0.1-1.2,0.3c-0.2,0.4-0.1,1,0.3,1.2c0.4,0.2,0.6,0.6,0.7,1l1.3,8.8c0,0.3,0.3,0.6,0.6,0.7l2,0.7
			c1.3,0.5,1.5,0.8,1.4,1.1l-2.1,14.4c-0.1,0.7-0.5,1.1-1.3,1.3l-13.3,2.9c-0.1,0-0.2,0-0.3-0.1c-0.3-0.2-0.6-0.7-0.6-1.2l-0.1-0.4
			c0-0.3-0.2-0.5-0.4-0.6c-0.2-0.1-0.5-0.2-0.7-0.1L2.6,38.2c-0.2,0.1-0.4-0.1-0.4-0.1c-0.3-0.2-0.5-0.6-0.4-0.9l4.1-24.3
			c0.1-0.6,0.4-1.2,0.7-1.3c0.4-0.2,0.7-0.7,0.5-1.1C6.9,10,6.4,9.8,5.9,10c-1.1,0.4-1.7,1.6-1.8,2.6L0,36.9c-0.1,0.9,0.2,1.9,1,2.5
			C1.5,39.8,2,40,2.5,40c0.2,0,0.5,0,0.7-0.1L14,36c0.2,0.8,0.7,1.4,1.2,1.8c0.5,0.3,1.1,0.5,1.7,0.3l13.3-2.9
			c1.5-0.3,2.5-1.3,2.7-2.7L35,18.1C35.3,16.1,33.2,15.4,32.4,15.1z M11.9,16.6v2.7c0,0.5,0.4,0.9,0.9,0.9c0.5,0,0.9-0.4,0.9-0.9
			v-2.7c1.8-0.4,3.1-2,3.1-3.9c0-2.2-1.8-4-4-4c-2.2,0-4,1.8-4,4C8.7,14.6,10.1,16.2,11.9,16.6z M12.7,10.4c1.2,0,2.3,1,2.3,2.3
			c0,1.2-1,2.3-2.3,2.3c-1.2,0-2.3-1-2.3-2.3C10.5,11.5,11.5,10.4,12.7,10.4z M20.7,7.9v2.7c0,0.5,0.4,0.9,0.9,0.9
			c0.5,0,0.9-0.4,0.9-0.9V7.9c1.8-0.4,3.1-2,3.1-3.9c0-2.2-1.8-4-4-4c-2.2,0-4,1.8-4,4C17.6,5.9,18.9,7.5,20.7,7.9z M21.6,1.7
			c1.2,0,2.3,1,2.3,2.3c0,1.2-1,2.3-2.3,2.3c-1.2,0-2.3-1-2.3-2.3C19.3,2.8,20.4,1.7,21.6,1.7z M11,7.1c0,0,0.1,0,0.1,0
			c0.4,0,0.8-0.3,0.9-0.7l0.4-2.7c0.1-0.5,0.4-1,0.6-1.2c0.1-0.1,0.2-0.1,0.3-0.1l2.2,0.5c0.5,0.1,0.9-0.2,1-0.7
			c0.1-0.5-0.2-0.9-0.7-1l-2.2-0.5c-0.6-0.1-1.2,0-1.7,0.3c-0.7,0.5-1.2,1.4-1.4,2.4l-0.4,2.7C10.2,6.5,10.5,7,11,7.1z"/>
	</g>
</g>
</svg>
