<?xml version="1.0" encoding="utf-8"?>
<!-- Generator: Adobe Illustrator 19.0.1, SVG Export Plug-In . SVG Version: 6.00 Build 0)  -->
<svg version="1.1" id="helmet_1_" xmlns="http://www.w3.org/2000/svg" xmlns:xlink="http://www.w3.org/1999/xlink" x="0px" y="0px"
	 viewBox="0 0 45 34" style="enable-background:new 0 0 45 34;" xml:space="preserve">
<style type="text/css">
	.st0{fill-rule:evenodd;clip-rule:evenodd;fill:#333;}
</style>
<g id="helmet">
	<g>
		<path class="st0" d="M41.2,21.2v-0.4c0-7.6-4.4-14.3-11.3-17.3l0-0.6c0-0.3-0.1-0.5-0.2-0.7c-0.2-0.2-0.4-0.3-0.7-0.3h-3.3
			C25.1,0.8,23.9,0,22.5,0c-1.4,0-2.6,0.8-3.2,1.9h-3.3c-0.3,0-0.5,0.1-0.7,0.3C15.1,2.4,15,2.6,15,2.9l0,0.6
			c-6.9,3-11.3,9.7-11.3,17.3v0.4c-2.5,0.9-3.8,2-3.8,3.3C0,28.1,10.5,34,22.5,34c12,0,22.5-5.9,22.5-9.4
			C45,23.2,43.8,22.1,41.2,21.2z M5.6,20.8c0-6.6,3.7-12.4,9.6-15.3l0.7,8.7c0,0.5,0.5,0.9,0.9,0.9c0,0,0.1,0,0.1,0
			c0.5,0,0.9-0.5,0.9-1L17,3.8h1.8v16.1c0,0.5,0.4,0.9,0.9,0.9c0.5,0,0.9-0.4,0.9-0.9V3.8c0-1,0.8-1.9,1.9-1.9c1,0,1.9,0.8,1.9,1.9
			v16.1c0,0.5,0.4,0.9,0.9,0.9c0.5,0,0.9-0.4,0.9-0.9V3.8H28l-0.9,10.3c0,0.5,0.3,1,0.9,1c0,0,0.1,0,0.1,0c0.5,0,0.9-0.4,0.9-0.9
			l0.7-8.7c5.9,2.8,9.6,8.7,9.6,15.3v2.3c-1.5,0.8-6.9,3.4-16.9,3.4c-9.9,0-15.4-2.6-16.9-3.4V20.8z M22.5,32.1
			c-11.8,0-20.6-5.8-20.6-7.6c0-0.2,0.4-0.7,1.9-1.3v0.4c0,0.3,0.2,0.6,0.4,0.8c0.2,0.2,6,3.9,18.3,3.9c12.3,0,18.1-3.8,18.3-3.9
			c0.3-0.2,0.4-0.5,0.4-0.8v-0.4c1.5,0.6,1.9,1.1,1.9,1.3C43.1,26.3,34.3,32.1,22.5,32.1z"/>
	</g>
</g>
</svg>
