<?xml version="1.0" encoding="utf-8"?>
<!-- Generator: Adobe Illustrator 19.0.1, SVG Export Plug-In . SVG Version: 6.00 Build 0)  -->
<svg version="1.1" id="light_1_" xmlns="http://www.w3.org/2000/svg" xmlns:xlink="http://www.w3.org/1999/xlink" x="0px" y="0px"
	 viewBox="0 0 32 43" style="enable-background:new 0 0 32 43;" xml:space="preserve">
<style type="text/css">
	.st0{fill:#333333;}
</style>
<g id="light">
	<g>
		<path class="st0" d="M27.3,17.2c-2.1-2.2-4.8-3.8-7.9-4.5v-2c0-0.4-0.2-0.9-0.5-1.1c-0.3-0.3-0.7-0.5-1.1-0.5H17l-0.1-8.4
			c0-0.5-0.4-0.8-0.8-0.8c-0.5,0-0.8,0.4-0.8,0.8l0.1,8.4h-0.9c-0.4,0-0.9,0.2-1.1,0.5c-0.3,0.3-0.5,0.7-0.5,1.1v1.9
			c-3.2,0.7-6.1,2.3-8.2,4.5C1.8,20.2,0,24.3,0,28.8c0,0.5,0.4,0.8,0.8,0.8h8.5c0.2,1.6,0.9,3,1.9,4.1c1.2,1.2,2.9,2,4.8,2
			c1.9,0,3.6-0.8,4.8-2c1.1-1.1,1.7-2.5,1.9-4.1h8.5c0.5,0,0.8-0.4,0.8-0.8C32,24.3,30.2,20.2,27.3,17.2z M14.5,10.9h3.3v1.6
			c-0.1,0-0.1,0-0.1,0h-0.3c-0.4-0.1-0.9-0.1-1.3-0.1c-0.4-0.1-0.9,0-1.3,0c-0.1,0-0.2,0-0.3,0.1V10.9z M19.7,32.5
			c-1,1-2.2,1.5-3.6,1.5c-1.4,0-2.7-0.6-3.6-1.5c-0.7-0.8-1.3-1.7-1.4-2.9h10.2C20.9,30.7,20.5,31.8,19.7,32.5z M1.6,28
			c0.2-3.7,1.8-7.1,4.2-9.6c2.2-2.3,5.2-3.8,8.5-4.2c0.1,0,0.3-0.1,0.4-0.1c0.4-0.1,0.9-0.1,1.3-0.1c0.5,0,0.9,0,1.4,0.1
			c0.1,0,0.3,0.1,0.4,0.1c3.3,0.4,6.2,1.9,8.5,4.2c2.4,2.5,4,5.8,4.2,9.6H1.6z M16.1,36.9c-0.5,0-0.8,0.4-0.8,0.8v4.5
			c0,0.5,0.4,0.8,0.8,0.8c0.5,0,0.8-0.4,0.8-0.8v-4.5C16.9,37.2,16.5,36.9,16.1,36.9z M21.1,36c-0.2-0.4-0.7-0.5-1.1-0.3
			c-0.4,0.2-0.5,0.8-0.3,1.1l2.2,3.9c0.2,0.4,0.7,0.5,1.1,0.3c0.4-0.2,0.5-0.8,0.3-1.1L21.1,36z M27.8,34.8L24,32.5
			c-0.4-0.2-0.9-0.1-1.1,0.3c-0.2,0.4-0.1,0.9,0.3,1.1l3.8,2.3c0.4,0.2,0.9,0.1,1.1-0.3C28.3,35.6,28.2,35,27.8,34.8z M9.2,32.8
			c-0.2-0.4-0.7-0.5-1.1-0.3l-3.8,2.3C3.9,35,3.8,35.6,4,35.9c0.2,0.4,0.7,0.5,1.1,0.3L8.9,34C9.3,33.7,9.5,33.2,9.2,32.8z
			 M12.1,35.7c-0.4-0.2-0.9-0.1-1.1,0.3L8.8,40c-0.2,0.4-0.1,0.9,0.3,1.1c0.4,0.2,0.9,0.1,1.1-0.3l2.2-3.9
			C12.7,36.5,12.5,35.9,12.1,35.7z"/>
	</g>
</g>
</svg>
