<?xml version="1.0" encoding="utf-8"?>
<!-- Generator: Adobe Illustrator 19.0.1, SVG Export Plug-In . SVG Version: 6.00 Build 0)  -->
<svg version="1.1" id="school_1_" xmlns="http://www.w3.org/2000/svg" xmlns:xlink="http://www.w3.org/1999/xlink" x="0px" y="0px"
	 viewBox="0 0 27 20" style="enable-background:new 0 0 27 20;" xml:space="preserve">
<style type="text/css">
	.st0{fill:#333333;}
</style>
<g id="school">
	<g>
		<path class="st0" d="M5.1,7.5h3.5c0.3,0,0.5-0.2,0.5-0.5V4.7c0-0.3-0.2-0.5-0.5-0.5H5.1c-0.3,0-0.5,0.2-0.5,0.5V7
			C4.6,7.3,4.8,7.5,5.1,7.5z M5.6,5.2h2.5v1.4H5.6V5.2z M11.5,7.5h3.5c0.3,0,0.5-0.2,0.5-0.5V4.7c0-0.3-0.2-0.5-0.5-0.5h-3.5
			c-0.3,0-0.5,0.2-0.5,0.5V7C11,7.3,11.2,7.5,11.5,7.5z M12,5.2h2.5v1.4H12V5.2z M18.1,7.5h3.5c0.3,0,0.5-0.2,0.5-0.5V4.7
			c0-0.3-0.2-0.5-0.5-0.5h-3.5c-0.3,0-0.5,0.2-0.5,0.5V7C17.6,7.3,17.9,7.5,18.1,7.5z M18.6,5.2h2.5v1.4h-2.5V5.2z M5.1,12.2h3.5
			c0.3,0,0.5-0.2,0.5-0.5V9.3c0-0.3-0.2-0.5-0.5-0.5H5.1c-0.3,0-0.5,0.2-0.5,0.5v2.4C4.6,12,4.8,12.2,5.1,12.2z M5.6,9.8h2.5v1.4
			H5.6V9.8z M11.5,12.2h3.5c0.3,0,0.5-0.2,0.5-0.5V9.3c0-0.3-0.2-0.5-0.5-0.5h-3.5c-0.3,0-0.5,0.2-0.5,0.5v2.4
			C11,12,11.2,12.2,11.5,12.2z M12,9.8h2.5v1.4H12V9.8z M18.1,12.2h3.5c0.3,0,0.5-0.2,0.5-0.5V9.3c0-0.3-0.2-0.5-0.5-0.5h-3.5
			c-0.3,0-0.5,0.2-0.5,0.5v2.4C17.6,12,17.9,12.2,18.1,12.2z M18.6,9.8h2.5v1.4h-2.5V9.8z M26.5,0h-26C0.2,0,0,0.2,0,0.5v2.1
			C0,2.8,0.2,3,0.5,3h0.3v16.5c0,0.3,0.5,0.5,0.5,0.5h24.3c0,0,0.5-0.2,0.5-0.5V3h0.3C26.8,3,27,2.8,27,2.6V0.5
			C27,0.2,26.8,0,26.5,0z M12.8,18.7h-1.2v-2.8h1.2V18.7z M15,18.7h-1.2v-2.8H15V18.7z M18.7,18.7H16v-3.3c0-0.3-0.2-0.5-0.5-0.5
			h-4.4c-0.3,0-0.5,0.2-0.5,0.5v3.3H8v-4.2h10.7V18.7z M25.2,19h-5.5l0-1.6V14c0-0.3-0.2-0.5-0.5-0.5H7.5C7.2,13.5,7,13.7,7,14v3.4
			L7,19H1.8V3h23.3V19z M26,2.1H1V1h25V2.1z"/>
	</g>
</g>
</svg>
