<?xml version="1.0" encoding="utf-8"?>
<!-- Generator: Adobe Illustrator 19.0.1, SVG Export Plug-In . SVG Version: 6.00 Build 0)  -->
<svg version="1.1" id="sport_1_" xmlns="http://www.w3.org/2000/svg" xmlns:xlink="http://www.w3.org/1999/xlink" x="0px" y="0px"
	 viewBox="0 0 48 23" style="enable-background:new 0 0 48 23;" xml:space="preserve">
<style type="text/css">
	.st0{fill-rule:evenodd;clip-rule:evenodd;fill:#333333;}
</style>
<g id="sport">
	<g>
		<path class="st0" d="M45.2,8.3V4.7c0-2-1.6-3.7-3.7-3.7c-1.1,0-2,0.5-2.7,1.2C38.3,0.9,37,0,35.5,0c-2,0-3.7,1.7-3.7,3.7v4.5H16.2
			V3.7c0-2-1.6-3.7-3.7-3.7C11,0,9.7,0.9,9.1,2.3C8.5,1.5,7.5,1.1,6.4,1.1c-2,0-3.7,1.7-3.7,3.7v3.5C2.1,8.4,1.4,8.7,1,9.2
			c-0.6,0.6-1,1.4-1,2.3c0,1.6,1.2,3,2.8,3.2v3.5c0,2,1.6,3.7,3.7,3.7c1.1,0,2-0.5,2.7-1.2C9.7,22.1,11,23,12.5,23
			c2,0,3.7-1.7,3.7-3.7v-4.5h15.6v4.5c0,2,1.6,3.7,3.7,3.7c1.5,0,2.8-0.9,3.4-2.3c0.7,0.7,1.6,1.2,2.7,1.2c2,0,3.7-1.7,3.7-3.7v-3.5
			c0.7-0.1,1.3-0.4,1.8-0.9c0.6-0.6,1-1.4,1-2.3C48,9.9,46.8,8.5,45.2,8.3z M2.8,13.4c-0.9-0.2-1.5-1-1.5-1.9c0-0.5,0.2-1,0.6-1.4
			c0.3-0.3,0.6-0.4,0.9-0.5V13.4z M8.8,18.2c0,1.3-1.1,2.4-2.4,2.4c-1.3,0-2.4-1.1-2.4-2.4V4.7c0-1.3,1.1-2.4,2.4-2.4
			c1.3,0,2.4,1.1,2.4,2.4V18.2z M14.9,19.3c0,1.3-1.1,2.4-2.4,2.4c-1.3,0-2.4-1.1-2.4-2.4V3.7c0-1.3,1.1-2.4,2.4-2.4
			c1.3,0,2.4,1.1,2.4,2.4V19.3z M31.8,13.5H16.2v-4h15.6V13.5z M37.9,19.3c0,1.3-1.1,2.4-2.4,2.4c-1.3,0-2.4-1.1-2.4-2.4V3.7
			c0-1.3,1.1-2.4,2.4-2.4c1.3,0,2.4,1.1,2.4,2.4V19.3z M44,18.2c0,1.3-1.1,2.4-2.4,2.4c-1.3,0-2.4-1.1-2.4-2.4V4.7
			c0-1.3,1.1-2.4,2.4-2.4c1.3,0,2.4,1.1,2.4,2.4V18.2z M46.2,12.9c-0.3,0.3-0.6,0.4-0.9,0.5V9.6c0.9,0.2,1.5,1,1.5,1.9
			C46.7,12,46.5,12.5,46.2,12.9z"/>
	</g>
</g>
</svg>
