<?xml version="1.0" encoding="utf-8"?>
<!-- Generator: Adobe Illustrator 19.0.1, SVG Export Plug-In . SVG Version: 6.00 Build 0)  -->
<svg version="1.1" id="shop_1_" xmlns="http://www.w3.org/2000/svg" xmlns:xlink="http://www.w3.org/1999/xlink" x="0px" y="0px"
	 viewBox="0 0 37 37" style="enable-background:new 0 0 37 37;" xml:space="preserve">
<style type="text/css">
	.st0{fill-rule:evenodd;clip-rule:evenodd;fill:#484848;}
</style>
<g id="shop">
	<g>
		<path class="st0" d="M36.8,6.6c-0.1-0.1-0.3-0.2-0.5-0.2H6.5L6.1,3.5c-0.2-2-2-3.5-4-3.5H0.7C0.3,0,0,0.3,0,0.7
			c0,0.4,0.3,0.7,0.7,0.7h1.4c1.3,0,2.4,1,2.6,2.3l2.9,23.5c0.3,2.1,2,3.6,4.2,3.6h2.8l-0.3,0.6c-0.2-0.1-0.5-0.1-0.7-0.1
			c-1.6,0-2.9,1.3-2.9,2.9s1.3,2.9,2.9,2.9c1.6,0,2.9-1.3,2.9-2.9c0-0.9-0.4-1.6-1-2.2l0.7-1.2h14.6l-0.3,0.6
			c-0.2-0.1-0.5-0.1-0.7-0.1c-1.6,0-2.9,1.3-2.9,2.9s1.3,2.9,2.9,2.9c1.6,0,2.9-1.3,2.9-2.9c0-0.9-0.4-1.6-1-2.2l0.7-1.2h0.6
			c0.4,0,0.7-0.3,0.7-0.7c0-0.4-0.3-0.7-0.7-0.7H11.8c-1.4,0-2.6-1-2.8-2.4l-0.4-3.2h25.7c0.4,0,0.7-0.3,0.7-0.6l2-16
			C37,6.9,37,6.7,36.8,6.6z M31.3,34.1c0,0.8-0.7,1.5-1.5,1.5c-0.8,0-1.5-0.7-1.5-1.5c0-0.8,0.7-1.5,1.5-1.5h0l-0.6,1.2
			c-0.2,0.3-0.1,0.8,0.3,0.9c0.1,0.1,0.2,0.1,0.3,0.1c0.3,0,0.5-0.1,0.6-0.4l0.6-1.2C31.2,33.5,31.3,33.8,31.3,34.1z M15,34.1
			c0,0.8-0.7,1.5-1.5,1.5c-0.8,0-1.5-0.7-1.5-1.5c0-0.8,0.7-1.5,1.5-1.5h0l-0.6,1.2c-0.2,0.3-0.1,0.8,0.3,0.9
			c0.1,0.1,0.2,0.1,0.3,0.1c0.3,0,0.5-0.1,0.6-0.4l0.6-1.2C14.9,33.5,15,33.8,15,34.1z M8.4,22.4L6.7,7.7h3.9l1.2,14.6H8.4z
			 M13.2,22.4L12,7.7h4.8l0.4,14.6H13.2z M23.5,22.4h-4.8L18.2,7.7h5.7L23.5,22.4z M29,22.4h-4.1l0.4-14.6h4.8L29,22.4z M33.7,22.4
			h-3.3l1.2-14.6h3.9L33.7,22.4z"/>
	</g>
</g>
</svg>
