<?xml version="1.0" encoding="utf-8"?>
<!-- Generator: Adobe Illustrator 19.0.1, SVG Export Plug-In . SVG Version: 6.00 Build 0)  -->
<svg version="1.1" id="school-pupils_1_" xmlns="http://www.w3.org/2000/svg" xmlns:xlink="http://www.w3.org/1999/xlink" x="0px"
	 y="0px" viewBox="0 0 174 163" style="enable-background:new 0 0 174 163;" xml:space="preserve">
<style type="text/css">
	.st0{fill:#E8E8E8;}
</style>
<g id="school-pupils">
	<g>
		<path class="st0" d="M81.1,91.4c0.2,0.1,0.5,0.1,0.7,0.1c1.1,0,2.1-0.7,2.4-1.8c0.4-1.3-0.4-2.7-1.7-3.1l-18-5.4v-7.3
			c6.7-4.9,11.2-12.7,11.8-21.4c3.5-1.1,6.8-4.3,6.8-8.1c0-2.5-1.9-4.8-3.7-6.4V20.4c0-4.8-2.4-9.2-6.4-11.9C71.7,3.5,67.2,0,62,0
			H38.2C25.3,0,14.9,10.5,14.9,23.4v14.4c-1.9,1.6-3,3.9-3,6.4c0,3.8,2.5,7.1,6,8.1c0.6,8.8,5.2,16.5,11.8,21.4v7.3L8.2,87.6
			C3.3,89.1,0,93.5,0,98.6v29.1c0,1.4,1.1,2.5,2.5,2.5H3v30.3c0,1.4,1.1,2.5,2.5,2.5c1.4,0,2.5-1.1,2.5-2.5v-30.3h9.8v30.3
			c0,1.4,1.1,2.5,2.5,2.5c1.4,0,2.5-1.1,2.5-2.5v-47.7c0-0.4-0.1-0.8-0.3-1.1l-5.9-11.9c-0.6-1.2-2.1-1.7-3.4-1.1
			c-1.2,0.6-1.7,2.1-1.1,3.4l5.7,11.4v11.8H5V98.6c0-2.9,1.8-5.3,4.6-6.2l9-2.7c3.1,13.1,14.9,22.6,28.5,22.6c7,0,13.8-2.5,19.1-7.1
			c4.7-4.1,8-9.5,9.4-15.5L81.1,91.4z M22.9,50.2c0-1.4-1.1-2.5-2.5-2.5c-1.9,0-3.4-1.5-3.4-3.4c0-1.2,0.6-2.3,1.7-3
			c0.1,0,0.1-0.1,0.2-0.1c0.5-0.2,1-0.4,1.6-0.4h3.8c2.4,0,4.5-1.5,5.2-3.8l1.7-5.2c5.9-0.1,24.5-1,35-6.2c1.2-0.6,1.7-2.1,1.1-3.4
			c-0.6-1.2-2.1-1.7-3.4-1.1c-11.2,5.6-34.3,5.7-34.6,5.7c-1.1,0-2,0.7-2.4,1.7l-2.3,6.9c-0.1,0.2-0.2,0.3-0.4,0.3h-3.8
			c-0.2,0-0.3,0-0.5,0V23.4C19.9,13.3,28.1,5,38.2,5H62c3.2,0,5.8,2.3,6.3,5.4c0.1,0.8,0.6,1.4,1.2,1.8c3,1.7,4.8,4.8,4.8,8.2v18.7
			c0,0.9,0.5,1.7,1.2,2.2c1.1,0.6,1.7,1.7,1.7,3c0,1.9-1.5,3.4-3.4,3.4c-1.4,0-2.5,1.1-2.5,2.5c0,13.4-10.9,24.3-24.3,24.3
			S22.9,63.6,22.9,50.2z M59.5,76.8V83c0,6.8-5.5,12.4-12.4,12.4c-6.8,0-12.3-5.5-12.4-12.4c0,0,0,0,0,0v-6.2
			c3.8,1.8,7.9,2.7,12.4,2.7C51.5,79.5,55.7,78.6,59.5,76.8z M63,101.4c-4.4,3.8-10,5.9-15.8,5.9c-11.4,0-21.3-8.1-23.7-19l6.6-2
			c1.5,8,8.6,14.1,17.1,14.1c8.5,0,15.5-6.1,17.1-14.1l6.6,2C69.7,93.4,66.9,98,63,101.4z M47.1,64.6c3,0,5.9-1.4,7.9-3.9
			c0.9-1.1,0.7-2.7-0.4-3.5c-1.1-0.9-2.7-0.7-3.5,0.4c-1.1,1.3-2.5,2-4,2c-1.5,0-2.9-0.7-4-2c-0.9-1.1-2.5-1.2-3.5-0.4
			c-1.1,0.9-1.2,2.5-0.4,3.5C41.2,63.2,44.1,64.6,47.1,64.6z M35.2,49.7c1.4,0,2.5-1.1,2.5-2.5v-3c0-1.4-1.1-2.5-2.5-2.5
			s-2.5,1.1-2.5,2.5v3C32.7,48.6,33.8,49.7,35.2,49.7z M59,49.7c1.4,0,2.5-1.1,2.5-2.5v-3c0-1.4-1.1-2.5-2.5-2.5
			c-1.4,0-2.5,1.1-2.5,2.5v3C56.5,48.6,57.6,49.7,59,49.7z M137.4,72.1c-1.1-0.9-2.7-0.7-3.5,0.4c-1.1,1.3-2.5,2-4,2
			c-1.5,0-2.9-0.7-4-2c-0.9-1.1-2.5-1.2-3.5-0.4c-1.1,0.9-1.2,2.5-0.4,3.5c2,2.5,4.9,3.9,7.9,3.9c3,0,5.9-1.4,7.9-3.9
			C138.6,74.6,138.5,73,137.4,72.1z M117.9,56.6c-1.4,0-2.5,1.1-2.5,2.5v3c0,1.4,1.1,2.5,2.5,2.5s2.5-1.1,2.5-2.5v-3
			C120.5,57.8,119.3,56.6,117.9,56.6z M141.7,56.6c-1.4,0-2.5,1.1-2.5,2.5v3c0,1.4,1.1,2.5,2.5,2.5s2.5-1.1,2.5-2.5v-3
			C144.3,57.8,143.1,56.6,141.7,56.6z M166.8,108.2l-20.4-8.2c-0.2-0.1-0.3-0.2-0.5-0.2c13.8-2.8,20.3-5.4,20.6-5.5
			c1.1-0.4,1.7-1.5,1.5-2.6c0-0.2-3-23.9-3-44.4c0-19.5-15.8-35.3-35.2-35.3c-19.4,0-35.2,15.8-35.2,35.3c0,20.5-2.9,44.2-3,44.4
			c-0.1,1.1,0.5,2.2,1.5,2.6c0.3,0.1,6.8,2.7,20.6,5.5c-0.2,0.1-0.3,0.2-0.5,0.2l-20.4,8.2c-4.4,1.8-7.2,5.9-7.2,10.6v6.3h-9.3
			v-11.8l5.7-11.4c0.6-1.2,0.1-2.8-1.1-3.4c-1.2-0.6-2.8-0.1-3.4,1.1l-5.9,11.9c-0.2,0.3-0.3,0.7-0.3,1.1v47.7
			c0,1.4,1.1,2.5,2.5,2.5c1.4,0,2.5-1.1,2.5-2.5v-30.3h9.3v3.4c0,0.7,0.3,1.3,0.7,1.8c0.5,0.5,1.1,0.7,1.8,0.7h0.5v24.3
			c0,1.4,1.1,2.5,2.5,2.5c1.4,0,2.5-1.1,2.5-2.5v-24.3h6.9v24.3c0,1.4,1.1,2.5,2.5,2.5c1.4,0,2.5-1.1,2.5-2.5v-32.8
			c0-1.4-1.1-2.5-2.5-2.5c-1.4,0-2.5,1.1-2.5,2.5v3.4h-9.8v-12.3c0-2.6,1.6-5,4-6l10-4c3.4,10.9,13.6,18.4,25.1,18.4
			c11.5,0,21.6-7.5,25.1-18.4l10,4c2.4,1,4,3.3,4,6v12.3h-9.8v-3.4c0-1.4-1.1-2.5-2.5-2.5s-2.5,1.1-2.5,2.5v32.8
			c0,1.4,1.1,2.5,2.5,2.5s2.5-1.1,2.5-2.5v-24.3h6.9v24.3c0,1.4,1.1,2.5,2.5,2.5s2.5-1.1,2.5-2.5v-24.3h0.5c1.4,0,2.5-1.1,2.5-2.5
			v-14.8C174,114.1,171.2,110,166.8,108.2z M99.6,47.2c0-16.7,13.6-30.3,30.2-30.3c16.7,0,30.2,13.6,30.2,30.3
			c0,17.3,2.1,36.8,2.8,43c-2.8,0.9-8.9,2.8-18.6,4.7v-4.3c1.4-0.8,2.7-1.7,4-2.7c5.1-4.1,8.7-9.9,10.2-16.3
			c0.5-2.1,0.7-4.3,0.7-6.5c0-14.7-10.6-16.8-20.9-18.8c-6.6-1.3-13.3-2.7-18.8-7c-0.6-0.5-1.4-0.7-2.1-0.5
			c-0.7,0.2-1.4,0.7-1.7,1.3c0,0-1.4,2.8-3.8,5.5c-2,2.3-5.2,5-8.8,5c-1.2,0-2.4,0.3-3.5,0.8C99.6,50,99.6,48.6,99.6,47.2z
			 M129.8,89.4c-5.6,0-10.9-1.9-15.2-5.4c-4.2-3.4-7.2-8.2-8.4-13.5c-0.4-1.8-0.6-3.6-0.6-5.4c0-1.4-1.1-2.5-2.5-2.5
			c-1.9,0-3.4-1.5-3.4-3.4c0-1.9,1.5-3.4,3.4-3.4c7.6,0,13.2-6.9,15.6-10.8c5.9,3.8,12.6,5.1,18.6,6.3c11,2.2,16.8,3.8,16.8,13.9
			c0,1.8-0.2,3.6-0.6,5.4c-1.2,5.3-4.2,10.1-8.4,13.5C140.7,87.5,135.5,89.4,129.8,89.4z M96.9,90.2c0.4-3.9,1.4-13.1,2.1-23.7
			c0.5,0.3,1.1,0.5,1.7,0.7c0.1,1.5,0.3,2.9,0.6,4.4c1.4,6.4,5.1,12.2,10.2,16.3c1.3,1,2.6,1.9,4,2.7V95
			C105.8,93.1,99.7,91.2,96.9,90.2z M129.8,122.2c-9.4,0-17.7-6.2-20.4-15.2l5.7-2.3c3.2-1.3,5.3-4.4,5.3-7.9v-3.9
			c3,1,6.2,1.6,9.4,1.6c3.2,0,6.4-0.5,9.4-1.6v3.9c0,3.5,2.1,6.6,5.3,7.9l5.7,2.3C147.6,116,139.3,122.2,129.8,122.2z"/>
	</g>
</g>
</svg>
