<?xml version="1.0" encoding="utf-8"?>
<!-- Generator: Adobe Illustrator 19.0.1, SVG Export Plug-In . SVG Version: 6.00 Build 0)  -->
<svg version="1.1" id="products_1_" xmlns="http://www.w3.org/2000/svg" xmlns:xlink="http://www.w3.org/1999/xlink" x="0px"
	 y="0px" viewBox="0 0 124 158" style="enable-background:new 0 0 124 158;" xml:space="preserve">
<style type="text/css">
	.st0{fill:#E8E8E8;}
</style>
<g id="products">
	<g>
		<path class="st0" d="M104.7,56.1c-1.4-0.5-3,0.3-3.5,1.7c-0.9,2.5-3.6,3.9-6.2,3c-5.4-1.8-11.3,1.1-13.1,6.5
			c-0.5,1.4,0.3,3,1.7,3.5c0.3,0.1,0.6,0.1,0.9,0.1c1.1,0,2.2-0.7,2.6-1.9c0.9-2.5,3.6-3.9,6.1-3c5.4,1.8,11.3-1.1,13.1-6.5
			C106.9,58.2,106.2,56.6,104.7,56.1z M111.2,36.9c-1.4-0.5-3,0.3-3.5,1.7c-0.9,2.5-3.6,3.9-6.1,3c-2.6-0.9-5.4-0.7-7.9,0.5
			c-2.5,1.2-4.3,3.3-5.2,6c-0.5,1.4,0.3,3,1.7,3.5c0.3,0.1,0.6,0.1,0.9,0.1c1.2,0,2.2-0.7,2.6-1.9c0.4-1.2,1.3-2.2,2.4-2.8
			c1.2-0.6,2.5-0.6,3.7-0.2c5.4,1.8,11.3-1.1,13.1-6.5C113.5,39,112.7,37.4,111.2,36.9z M114.6,19.2c-1.5-0.5-3,0.3-3.5,1.7
			c-0.3,0.9-1,1.6-1.8,2.1c-0.8,0.4-1.8,0.5-2.7,0.2c-4.7-1.6-9.9,0.9-11.5,5.7c-0.5,1.4,0.3,3,1.7,3.5c0.3,0.1,0.6,0.1,0.9,0.1
			c1.1,0,2.2-0.7,2.6-1.9c0.6-1.9,2.7-2.9,4.5-2.3c2.3,0.8,4.8,0.6,7-0.4c2.2-1.1,3.8-2.9,4.6-5.2C116.8,21.3,116,19.7,114.6,19.2z
			 M116.7,70.7c-0.5-0.3-1-0.5-1.6-0.6c5.5-17.8,8.5-35.3,8.9-52c0.1-5.2-2.4-12.2-7.6-15.5c-2.5-1.6-6.5-2.8-11.8-0.1
			c-8.2,4.3-14.1,16.8-18.8,26.8c-0.3,0.6-0.5,1.1-0.8,1.7c-1.1-4.8-4.2-8.9-8.7-11.1c-1.1-5.1-5.1-9.1-10.2-10.2
			C66,9.6,65.9,9.3,65.9,9c-1.1-3.6-4.2-6.3-7.9-6.7c-2.1-0.2-4.1,0.2-5.9,1.2c-1.5-0.8-3.1-1.3-4.9-1.3c-4.8,0-8.8,3.4-9.9,7.8
			c-5.2,1.4-9.1,6.2-9.1,11.9c-6,1.5-10.3,7-10.3,13.4c0,1.7,0.3,3.4,0.9,5c-1.6,1.9-2.4,4.3-2.4,6.9c0,1.5,0.3,3,0.9,4.3
			c-2.8-3-6.6-5.5-11-5.3c-1.5,0.1-2.7,1.3-2.7,2.8c0,1.5,1.3,2.7,2.7,2.7c0.1,0,0.2,0,0.3,0c2.6,0,5,1.7,6.7,3.7
			c-4.4,1.3-9.6,3.3-12.1,8c-1.5,2.8-1.7,6.2-0.7,10.2C0.2,74.3,0,75.2,0,76.2L4.7,143C5.1,151.4,12,158,20.4,158h77.3
			c8.4,0,15.3-6.6,15.7-14.9l4.8-69.2v-0.1C118.3,72.6,117.7,71.4,116.7,70.7z M23.9,43l1.8-1.5l-1.2-2c-0.7-1.3-1.1-2.7-1.1-4.2
			c0-4.5,3.5-8.1,8-8.3l3.3-0.1L34,23.6c-0.1-0.5-0.2-1.1-0.2-1.6c0-3.6,2.8-6.6,6.3-6.8l2.5-0.2v-2.8c0.1-2.5,2.1-4.5,4.6-4.5
			c1.4,0,2.5,0.6,3.1,1.2l1.9,1.8l1.8-1.8c0.8-0.8,2-1.2,3.2-1.1c1.5,0.2,2.8,1.3,3.2,2.8c0.1,0.5,0.2,1,0.1,1.5l-0.3,3.1h3.1
			c4,0,7.3,3.1,7.5,7.1l0.1,1.8l1.7,0.6c4.3,1.5,7.1,5.6,7,10.2c0,2-0.7,3.8-1.8,5.5c-1.8-1.6-3.8-2.6-5.5-3.5
			c-0.4-0.2-0.8-0.5-1.3-0.7c-0.1-0.1-0.3-0.2-0.3-0.5c-0.1-0.4,0.1-0.9,0.4-1.2c1.2-1.4,1.7-3.3,1.3-5.1l-0.3-1.5
			c-0.3-1.5-1.3-2.8-2.6-3.7c-1.3-0.8-2.9-1.1-4.4-0.8l-0.7,0.2c0,0,0,0,0,0l-8.1,1.8l-7.9,1.7c-1.5,0.3-2.8,1.3-3.7,2.6
			c-0.8,1.3-1.1,2.9-0.8,4.4l0.2,0.8c0,0,0,0,0,0l0.2,0.8c0.4,1.8,1.7,3.4,3.4,4.1c0.4,0.2,0.8,0.5,0.9,0.9c0.1,0.2,0,0.3-0.1,0.6
			c-0.3,0.4-0.6,0.7-0.9,1.1c-0.3,0.4-0.6,0.8-0.9,1.2c-0.1,0.1-0.2,0.3-0.3,0.4c-0.2,0.3-0.5,0.6-0.7,1c-0.1,0.2-0.3,0.4-0.4,0.6
			c-0.2,0.3-0.4,0.6-0.6,1c-0.1,0.2-0.2,0.4-0.3,0.6c-0.2,0.4-0.4,0.8-0.6,1.2c-0.1,0.2-0.2,0.4-0.2,0.5c-0.2,0.6-0.5,1.2-0.6,1.9
			c0,0.1,0,0.2-0.1,0.3c-0.1,0.6-0.2,1.1-0.3,1.8c0,0.2,0,0.5-0.1,0.7c0,0.3-0.1,0.6-0.1,1l0,0c0-0.1-0.1-0.1-0.1-0.1
			c-0.5-0.6-1-1.2-1.4-1.8c-0.2-0.2-0.3-0.3-0.5-0.5c-0.4-0.4-0.8-0.8-1.2-1.2c-0.1-0.1-0.3-0.3-0.4-0.4c-0.5-0.5-1-0.9-1.5-1.3
			c-0.1-0.1-0.3-0.2-0.4-0.3c-0.4-0.3-0.8-0.5-1.2-0.7c-0.2-0.1-0.4-0.2-0.6-0.3c-0.4-0.2-0.8-0.4-1.2-0.5c-0.1-0.1-0.3-0.1-0.4-0.2
			c-0.4-0.1-0.9-0.3-1.4-0.4c-0.1,0-0.1,0-0.2,0c-0.1,0-0.2-0.1-0.3-0.1c-0.3,0-0.6,0-0.9,0c-0.2,0-0.4-0.1-0.7-0.1
			c-0.1,0-0.1,0-0.2,0c-0.4,0-0.8,0.1-1.3,0.1c-0.2,0-0.4,0.1-0.6,0.1c-0.6,0.1-1.1,0.2-1.6,0.4c-0.1,0-0.1,0.1-0.2,0.1
			c-1.4,0.5-2.7,1.1-3.9,1.9c-0.3-0.6-0.4-1.3-0.4-2C22,45.5,22.7,44,23.9,43z M63.6,61.3c-4.5,3.2-7.9,4.1-13.5,3.3L48.4,57
			c-1.1-5.2,1.3-8.3,3.7-11.4c0.3-0.4,0.6-0.8,0.9-1.2c0,0,0,0,0,0c0.2-0.3,0.4-0.6,0.6-0.9c0.7-1.3,0.8-2.7,0.5-4.1l11.5-2.5
			c0.1,0.3,0.2,0.7,0.3,1c0.5,1.3,1.4,2.3,2.7,3c0.4,0.2,0.9,0.5,1.3,0.7c0.4,0.2,0.7,0.4,1.1,0.6c0.2,0.1,0.4,0.2,0.5,0.3
			c0.3,0.2,0.6,0.4,1,0.6c0.3,0.2,0.5,0.3,0.8,0.5c0.3,0.2,0.6,0.4,0.9,0.7c0.3,0.2,0.5,0.4,0.7,0.7c0.3,0.3,0.5,0.5,0.8,0.8
			c0.4,0.5,0.8,1,1.2,1.7c-1.2,2.6-2.3,5.2-3.3,7.9c-0.2,0.4-0.3,0.8-0.5,1.2C70.1,57.3,67.2,58.8,63.6,61.3z M70.6,63.5
			c-0.2,0.7-0.5,1.4-0.7,2.2c-0.2,0.5-0.4,1-0.5,1.6c-0.8,2.5-1.6,4.9-2.3,7.4l-1.8-1.1c-2.3-1.4-4.8-2.1-7.3-2.1c0,0-0.1,0-0.1,0
			c-0.3,0-0.6,0-0.9,0c-0.2,0-0.4,0-0.6,0c-1.5,0.2-3,0.5-4.4,1.2l-0.5-2.4c0.8,0.1,1.6,0.1,2.3,0.1c4.8,0,8.7-1.4,13.1-4.6
			C68.2,64.9,69.4,64.1,70.6,63.5z M50.6,32.1l8.1-1.8l7.2-1.6c0.1,0,0.1,0,0.2,0c0.5,0,1,0.4,1.1,0.9c0.1,0.4-0.1,0.7-0.2,0.9
			c-0.1,0.1-0.3,0.4-0.7,0.5l-15.2,3.3c-0.6,0.1-1.2-0.3-1.3-0.9C49.6,32.9,50,32.3,50.6,32.1z M6.2,65.9c1.2-2.2,4-3.9,8.9-5.3
			c2.3-0.7,4.4-1.9,6.2-3.5c0.8-0.8,1.5-1.4,2.2-2c2.2-1.8,4.1-2.8,5.9-3c0,0,0.1,0,0.1,0c0.6-0.1,1.1,0,1.6,0
			c0.1,0,0.3,0.1,0.4,0.1c0.3,0.1,0.5,0.1,0.8,0.2c0.2,0.1,0.3,0.2,0.5,0.2c0.2,0.1,0.5,0.2,0.7,0.4c0.2,0.1,0.4,0.3,0.6,0.4
			c0.2,0.2,0.5,0.3,0.7,0.5c0.2,0.2,0.4,0.4,0.6,0.6c0.2,0.2,0.4,0.4,0.6,0.6c0.2,0.2,0.5,0.5,0.7,0.8c0.2,0.2,0.4,0.4,0.6,0.6
			c0.3,0.3,0.5,0.7,0.8,1c0.2,0.2,0.3,0.4,0.5,0.6c0.3,0.4,0.6,0.9,0.9,1.4c0.1,0.2,0.3,0.4,0.4,0.6c0.4,0.7,0.9,1.4,1.3,2.2
			c2,3.6,2.7,8.9,1.8,13.5c-0.1,0-0.3,0-0.4-0.1c-1-0.2-2.1-0.5-3-1.1l-2-1.2c-2.3-1.4-4.8-2-7.3-2h-0.1c-2.6,0-5.1,0.7-7.4,2
			l-1,0.6c-1.7,1-3.5,1.5-5.4,1.5c-1.9,0-3.7-0.5-5.4-1.5l-3.7-2.2h0c-0.5-0.3-1-0.5-1.5-0.6C5.3,69.1,5.5,67.3,6.2,65.9z
			 M107.9,142.8c-0.3,5.4-4.7,9.7-10.2,9.7H20.4c-5.4,0-9.9-4.3-10.2-9.8L5.6,77.4L8,78.8c2.6,1.6,5.5,2.3,8.4,2.3
			c2.9,0,5.8-0.8,8.4-2.3l1-0.6c1.4-0.8,2.9-1.2,4.4-1.2c1.5,0,3,0.4,4.4,1.2l2,1.2c2.5,1.5,5.3,2.1,8.1,2c0.2,0,0.5,0,0.7,0
			c0,0,0.1,0,0.1,0c1.9-0.2,3.7-0.8,5.4-1.8c0.2-0.1,0.3-0.1,0.5-0.1l2-1.2c1.4-0.8,2.9-1.2,4.4-1.2c1.5,0,3,0.4,4.4,1.2l2,1.2
			c2.1,1.3,4.4,1.9,6.7,2c0,0,0.1,0,0.1,0c0.8,0,1.6,0,2.4-0.1c0.5-0.1,0.9-0.2,1.3-0.3c0.2-0.1,0.4-0.1,0.6-0.2
			c1.2-0.3,2.4-0.8,3.5-1.5l2-1.2c1.4-0.8,2.9-1.2,4.4-1.2c1.5,0,3,0.4,4.4,1.2l2,1.2c2.3,1.4,4.8,2,7.4,2c0,0,0.1,0,0.1,0
			c2.5,0,4.9-0.6,7.2-1.9l5.4-2.4c0.1-0.1,0.2-0.1,0.3-0.2l0.4-0.2L107.9,142.8z M109.6,69.1c-0.2,0.6-0.6,1.8-1.1,3.3l-4.7,2.1
			c-0.1,0.1-0.2,0.1-0.3,0.2c-1.4,0.8-2.9,1.2-4.4,1.2c-1.5,0-3-0.4-4.4-1.2l-2-1.2c-2.3-1.4-4.8-2-7.3-2h-0.1c-2.6,0-5.1,0.7-7.4,2
			l-2,1.2c-1.1,0.7-2.3,1-3.5,1.1c0.1-0.2,0.1-0.5,0.2-0.7c0.8-2.6,1.6-5.1,2.4-7.6c0.3-1,0.7-1.9,1-2.9c0.7-2,1.4-4,2.2-5.9
			c0.3-0.9,0.7-1.8,1-2.6c2.4-5.9,5-11.6,8-17c1.1-2,2.3-4.6,3.5-7.3c4.1-8.8,9.8-20.9,16.4-24.3c2.4-1.2,4.5-1.3,6.3-0.1
			c3.2,2,5.1,7.1,5,10.6C118.1,34.4,115.1,51.5,109.6,69.1z M16.5,119.8h19.3c1.5,0,2.7-1.2,2.7-2.8c0-1.5-1.2-2.8-2.7-2.8H16.5
			c-1.5,0-2.8,1.2-2.8,2.8C13.8,118.6,15,119.8,16.5,119.8z M16.5,130.8h24.8c1.5,0,2.8-1.2,2.8-2.8c0-1.5-1.2-2.8-2.8-2.8H16.5
			c-1.5,0-2.8,1.2-2.8,2.8C13.8,129.6,15,130.8,16.5,130.8z M46.9,136.4H16.5c-1.5,0-2.8,1.2-2.8,2.8c0,1.5,1.2,2.8,2.8,2.8h30.3
			c1.5,0,2.8-1.2,2.8-2.8C49.6,137.6,48.4,136.4,46.9,136.4z M63.4,136.4h-5.5c-1.5,0-2.8,1.2-2.8,2.8c0,1.5,1.2,2.8,2.8,2.8h5.5
			c1.5,0,2.7-1.2,2.7-2.8C66.1,137.6,64.9,136.4,63.4,136.4z"/>
	</g>
</g>
</svg>
