<?xml version="1.0" encoding="utf-8"?>
<!-- Generator: Adobe Illustrator 19.0.1, SVG Export Plug-In . SVG Version: 6.00 Build 0)  -->
<svg version="1.1" id="children_1_" xmlns="http://www.w3.org/2000/svg" xmlns:xlink="http://www.w3.org/1999/xlink" x="0px"
	 y="0px" viewBox="0 0 23 21" style="enable-background:new 0 0 23 21;" xml:space="preserve">
<style type="text/css">
	.st0{fill:#333333;}
</style>
<g id="children">
	<g>
		<path class="st0" d="M22.8,7L11.7,0.1c-0.1-0.1-0.3-0.1-0.4,0L0.2,7C0,7.1-0.1,7.4,0.1,7.5c0.1,0.2,0.4,0.2,0.5,0.1L2,6.8v13.8
			C2,20.8,2.2,21,2.4,21h18.2c0.2,0,0.4-0.2,0.4-0.4V6.8l1.4,0.9c0.1,0,0.1,0.1,0.2,0.1c0.1,0,0.3-0.1,0.3-0.2
			C23.1,7.4,23,7.1,22.8,7z M10.4,20.2H4.5v-8.5c0-1.6,1.3-2.9,2.9-2.9c1.6,0,2.9,1.3,2.9,2.9V20.2z M20.2,20.2h-9v-8.5
			c0-2-1.7-3.7-3.7-3.7c-2.1,0-3.7,1.7-3.7,3.7v8.5H2.8V6.3l8.7-5.4l8.7,5.4V20.2z M11.8,11.7v3.2c0,0.2,0.2,0.4,0.4,0.4h6.6
			c0.2,0,0.4-0.2,0.4-0.4v-3.2c0-2-1.7-3.7-3.7-3.7C13.5,8,11.8,9.7,11.8,11.7z M18.5,14.5h-5.9v-0.6h5.9V14.5z M15.6,8.8
			c1.6,0,2.9,1.3,2.9,2.9v1.4h-5.9v-1.4C12.6,10.1,13.9,8.8,15.6,8.8z M9.4,4c-0.6,0.6-0.6,1.6,0,2.2L11.2,8
			c0.1,0.1,0.2,0.1,0.3,0.1c0.1,0,0.2,0,0.3-0.1l1.8-1.8c0.6-0.6,0.6-1.6,0-2.2c-0.6-0.6-1.5-0.6-2.1-0.1C10.9,3.3,10,3.4,9.4,4z
			 M11.9,4.5c0.3-0.3,0.8-0.3,1.1,0c0.3,0.3,0.3,0.8,0,1.1l-1.6,1.6L9.9,5.6c-0.3-0.3-0.3-0.8,0-1.1c0.2-0.2,0.4-0.2,0.6-0.2
			c0.2,0,0.4,0.1,0.6,0.2l0.2,0.2c0.1,0.1,0.2,0.1,0.3,0.1c0.1,0,0.2,0,0.3-0.1L11.9,4.5z M12.2,16.1c-0.2,0-0.4,0.2-0.4,0.4v2.7
			c0,0.2,0.2,0.4,0.4,0.4c0.2,0,0.4-0.2,0.4-0.4v-2.7C12.6,16.3,12.5,16.1,12.2,16.1z M18.9,16.1c-0.2,0-0.4,0.2-0.4,0.4v2.7
			c0,0.2,0.2,0.4,0.4,0.4c0.2,0,0.4-0.2,0.4-0.4v-2.7C19.3,16.3,19.1,16.1,18.9,16.1z M17.2,16.1c-0.2,0-0.4,0.2-0.4,0.4v2.7
			c0,0.2,0.2,0.4,0.4,0.4c0.2,0,0.4-0.2,0.4-0.4v-2.7C17.6,16.3,17.4,16.1,17.2,16.1z M15.6,16.1c-0.2,0-0.4,0.2-0.4,0.4v2.7
			c0,0.2,0.2,0.4,0.4,0.4c0.2,0,0.4-0.2,0.4-0.4v-2.7C16,16.3,15.8,16.1,15.6,16.1z M13.9,16.1c-0.2,0-0.4,0.2-0.4,0.4v2.7
			c0,0.2,0.2,0.4,0.4,0.4c0.2,0,0.4-0.2,0.4-0.4v-2.7C14.3,16.3,14.1,16.1,13.9,16.1z M9,14.6C9,14.8,9.2,15,9.4,15
			c0.2,0,0.4-0.2,0.4-0.4c0-0.2-0.2-0.4-0.4-0.4C9.2,14.2,9,14.4,9,14.6z"/>
	</g>
</g>
</svg>
