<svg xmlns="http://www.w3.org/2000/svg" width="216.2" height="179" viewBox="1727.6 -88 216.2 179"><title>Cozy place</title><path fill="#FFF" fill-opacity="0" d="M1727.6-88h216.2V91h-216.2z"/><g fill="#888"><path d="M1887 50.1a14.18 14.18 0 0 0-3.7-1.2c0-3.83-.34-4.33-3.76-5.61-6.83-2.56-13.7-5-20.47-7.75a10.93 10.93 0 0 0-10.16.77c-4 2.28-8.12 4.37-12.07 6.73a8.232 8.232 0 0 1-9.17 0c-5.46-3.15-10.93-6.27-16.41-9.37l-3.37-1.89-2-1.14c-.28-.16-.54-.33-.8-.5l-15.95-9c-.73-.45-1.5-.85-2.29-1.2a3.496 3.496 0 0 0-4.26 1.39c-.89 1.45-.64 3.32.6 4.48.59.49 1.24.91 1.92 1.26 3.08 1.76 6.18 3.49 9.26 5.26.47.3.92.64 1.35 1-1.24 1.38-2.4 2.83-3.49 4.33-2 3.15-3.94 6.35-5.82 9.61a3.28 3.28 0 0 1-3.43 2c-1.25-.12-2.5-.09-3.74.08-1.63.23-2.25 1.49-2 3.13.08.46.27 1.59.4 1.59h109.63c.27-2.07 1.25-3.07-.27-3.97zm-64.39-2.1h-30.89c.37 0 5.32-10.05 7.85-13.23 7.7 4.36 15.42 8.5 23.15 12.88-.01.2-.05.35-.09.35h-.02zm50.68 0h-31.58c.59 0 .91-.48 1.32-.71 2.59-1.47 5.19-2.67 7.81-4.09 2.7-1.57 6-1.71 8.82-.36 3.86 1.71 7.83 3.2 11.76 4.76.67.27 1.33.11 2 .39-.01.16-.06.01-.1.01h-.03z"/><path d="M1803.38 17.12c.12-3.28-2.45-6.04-5.74-6.16-3.28-.12-6.04 2.45-6.16 5.74a5.948 5.948 0 0 0 5.61 6.15c3.31.16 6.12-2.4 6.28-5.71.01 0 .01-.01.01-.02zm32.5-74.12c-30.73.03-55.64 24.94-55.67 55.67 0 1.66 1.34 3 3 3 .72 0 1.41-.26 1.95-.72.05 0 5.52-4.62 12-4.62 3.8.05 7.42 1.66 10 4.46.54.6 1.33.92 2.14.88.8-.01 1.57-.33 2.13-.91 0 0 5.31-5.1 11.76-5.1 3.44 0 6.09 1.46 10.09 4.31V28.7c0 .1.66.17 1.06.17 1.04-.02 2.07-.27 3-.74.63-.3 2-.55 2-.83V0c2-2.85 6.31-4.31 9.76-4.31 6.49 0 11.47 5.06 11.51 5.1.54.58 1.3.9 2.09.91.8.02 1.57-.3 2.12-.88 2.57-2.79 6.16-4.4 9.95-4.46 6.42 0 11.86 4.54 12 4.62 1.26 1.07 3.16.92 4.23-.35.46-.54.71-1.22.71-1.93-.02-30.78-24.98-55.72-55.76-55.7h-.07zm-24 55c0-1.84.07-3.34.17-5.07h.08c-.13 1.7-.25 3.22-.25 5.07zm21.33-40v34.49c-4-1.88-6.62-2.83-10.09-2.83-3.79-.03-7.52.92-10.83 2.75 1.45-21.07 9-38.27 20.91-41l.01 6.59zm2.75-13c-5.11 0-9.76 2.19-13.93 6.06h-.06c-8.57 8-14.65 23.11-15.8 41.27l-.1-.06a18.418 18.418 0 0 0-8.94-2.09c-3.7.1-7.33 1.05-10.6 2.77A49.738 49.738 0 0 1 1821.81-49c4.18-3.89 9-6.06 14.07-6.06 1.28 0 2.56.14 3.81.41A18.24 18.24 0 0 0 1836-55h-.04zm23.72 47.51a21.076 21.076 0 0 0-10.71-3c-3.46 0-7.76 1.12-9.76 3v-41.14c10 2.78 19.18 20.06 20.61 41.2l-.14-.06zm14.95-2.15c-3.09-.12-6.16.54-8.92 1.92-1.15-18.07-7-33.14-15.49-41.12 18.96 5.75 32.71 22.2 35 41.88a23.99 23.99 0 0 0-10.59-2.72v.04z"/><path d="M1837.84 30.06c-1.16.57-2.44.87-3.73.88a8.067 8.067 0 0 1-4.15-1.28c-5.69-3.39-11.55-6.83-17.36-10-1.16-.64-2.44-1.65-3.12-1.65h-.11a5.522 5.522 0 0 0-5.8 5.22c-.01.12-.01.23-.01.35.01 2.21 1.3 4.22 3.3 5.15 6.79 3.79 13.59 7.66 20.32 11.55a8.54 8.54 0 0 0 4.25 1.3c1.47-.02 2.9-.44 4.16-1.2 4.5-2.59 9.07-5 13.61-7.54a9.79 9.79 0 0 1 4.81-1.32c1.38.02 2.74.31 4 .87 5.48 2.32 11 4.47 16.56 6.66.88.38 1.81.61 2.76.7h.17a3 3 0 0 0 2.87-2.18c.51-1.4.05-2.97-1.13-3.88-.57-.35-1.18-.64-1.82-.85-6.63-2.54-13.32-4.93-19.89-7.63a10.922 10.922 0 0 0-9.53.35c-2.95 1.39-6.81 2.58-8.81 3.93V30h-1a.702.702 0 0 0-.35.06z"/><path d="M1838.21 29.78h.67v-.29l-.67.29z"/></g></svg>