<svg xmlns="http://www.w3.org/2000/svg" width="216.2" height="179" viewBox="1079 -88 216.2 179"><title>Cozy place</title><path fill="#FFF" fill-opacity="0" d="M1079-88h216.2V91H1079z"/><path d="M1270.24 48.49h-165.77a2.77 2.77 0 0 0-2.77 2.77c0 1.53 1.24 2.76 2.77 2.76h165.77c1.53 0 2.77-1.24 2.77-2.76a2.77 2.77 0 0 0-2.77-2.77zm-144.59-7.37h12.89c2.03 0 3.68-1.65 3.68-3.68V19h7.37v18.42c0 2.03 1.65 3.68 3.68 3.68h12.89c.6-.17 1.24-.17 1.84 0h12.89c2.03 0 3.68-1.65 3.68-3.68V19h7.43v18.42c0 2.03 1.65 3.68 3.68 3.68h12.89c.6-.17 1.24-.17 1.84 0h12.89c2.03 0 3.68-1.65 3.68-3.68V19h7.37v18.42c0 2.03 1.65 3.68 3.68 3.68h12.87c2.03 0 3.68-1.65 3.68-3.68v-63.84c-.01-.97-.4-1.89-1.08-2.58l-21.24-21.24c-.9-.9-2.35-.9-3.25 0l-19.55 19.55-19.56-19.58c-.9-.9-2.35-.9-3.25 0l-19.55 19.55-19.55-19.55c-.9-.9-2.35-.9-3.25 0L1123-29c-.69.7-1.08 1.64-1.08 2.62v63.86a3.683 3.683 0 0 0 3.72 3.64h.01zm105-85.2l18.42 18.42V35.6h-9.21V17.18c0-2.03-1.65-3.68-3.68-3.68h-11.07c-2.03 0-3.68 1.65-3.68 3.68V35.6h-9.21v-61.27l18.43-18.41zm-42.36 0l18.42 18.42V35.6h-9.21V17.18c0-2.03-1.65-3.68-3.68-3.68h-11.07c-2.03 0-3.68 1.65-3.68 3.68V35.6h-9.21v-61.27l18.43-18.41zm-60.78 18.42l18.42-18.42 18.42 18.42V35.6h-9.21V17.18c0-2.03-1.65-3.68-3.68-3.68h-11.07c-2.03 0-3.68 1.65-3.68 3.68V35.6h-9.21l.01-61.26z" fill="#888"/></svg>