<svg xmlns="http://www.w3.org/2000/svg" width="216.2" height="179" viewBox="2376.2 -88 216.2 179"><title>Cozy place</title><path fill="#FFF" fill-opacity="0" d="M2376.2-88h216.2V91h-216.2z"/><path fill="#888" d="M2431.38-9.37a5.665 5.665 0 0 0-1.13 4.9l11 47.34c.6 2.72 2.98 4.68 5.76 4.75h66a6.169 6.169 0 0 0 5.76-4.81l11-47.28c.41-1.7-.01-3.5-1.13-4.84a5.728 5.728 0 0 0-4.63-2.06h-1.75v-.32c-.91-6.2-6.67-10.48-12.87-9.57-4.96.73-8.85 4.62-9.57 9.57v.32h-6l7.48-25.12v-.13c.56-2.29.17-4.7-1.08-6.7-2.72-4.31-8.42-5.6-12.73-2.88a9.247 9.247 0 0 0-3.96 5.31l-3.78 12.84-.43-.34c-6.93-5.45-16.93-4.48-22.68 2.2a16.317 16.317 0 0 0-3.6 14.37l.1.46H2436c-1.76-.08-3.47.65-4.62 1.99zm82 51.45h-66.63l-9-38.48h84.58l-8.95 38.48zm-7.82-53.94c1.11-3.04 4.48-4.6 7.52-3.49.75.28 1.44.7 2.02 1.26.64.62 1.12 1.38 1.42 2.22l.18.5h-11.31l.17-.49zm-16.66-27.59a3.645 3.645 0 0 1 4.36-2.55c.94.2 1.77.77 2.28 1.59.45.72.6 1.58.42 2.4L2488-11.37h-7.4l8.3-28.08zm-28.05 16.87c3.97-4.59 10.9-5.1 15.5-1.14.42.36.95.59 1.5.65h.44l-3.43 11.64h-15.89l-.09-.25c-1.36-3.71-.62-7.87 1.93-10.89l.04-.01zm63.72 16.75l-1.64 7h-85.7l-1.64-7h88.98z"/><path fill="#888" d="M2460.91 12.16c-.86.14-1.43.95-1.29 1.81l3.14 18.87c.13.76.78 1.31 1.55 1.31h.26c.86-.14 1.43-.95 1.29-1.81l-3.14-18.87c-.13-.86-.93-1.44-1.79-1.31h-.02zm38.25 0c-.85-.15-1.66.42-1.81 1.27v.02l-3.14 18.87c-.14.85.43 1.67 1.29 1.81h.26c.77 0 1.42-.55 1.55-1.31l3.14-18.87c.13-.85-.44-1.65-1.29-1.79zm-20.27-.32c-.87 0-1.57.7-1.57 1.57v18.87c0 .87.7 1.57 1.57 1.57s1.57-.7 1.57-1.57V13.41c0-.87-.7-1.57-1.57-1.57z"/></svg>