<?xml version="1.0" encoding="utf-8"?>
<!-- Generator: Adobe Illustrator 19.0.1, SVG Export Plug-In . SVG Version: 6.00 Build 0)  -->
<svg version="1.1" id="shop_1_" xmlns="http://www.w3.org/2000/svg" xmlns:xlink="http://www.w3.org/1999/xlink" x="0px" y="0px"
	 viewBox="0 0 23 23" style="enable-background:new 0 0 23 23;" xml:space="preserve">
<style type="text/css">
	.st0{fill-rule:evenodd;clip-rule:evenodd;fill:#333333;}
</style>
<g id="shop">
	<g>
		<path class="st0" d="M22.9,4.1C22.8,4,22.7,4,22.6,4H4L3.8,2.2C3.7,0.9,2.6,0,1.3,0H0.4C0.2,0,0,0.2,0,0.4s0.2,0.4,0.4,0.4h0.9
			c0.8,0,1.5,0.6,1.6,1.4l1.8,14.6c0.2,1.3,1.3,2.2,2.6,2.2H9l-0.2,0.3c-0.1,0-0.3-0.1-0.4-0.1c-1,0-1.8,0.8-1.8,1.8
			c0,1,0.8,1.8,1.8,1.8c1,0,1.8-0.8,1.8-1.8c0-0.5-0.2-1-0.6-1.3l0.4-0.8h9.1l-0.2,0.3c-0.1,0-0.3-0.1-0.4-0.1c-1,0-1.8,0.8-1.8,1.8
			c0,1,0.8,1.8,1.8,1.8s1.8-0.8,1.8-1.8c0-0.5-0.2-1-0.6-1.3l0.4-0.8h0.4c0.2,0,0.4-0.2,0.4-0.4c0-0.2-0.2-0.4-0.4-0.4H7.3
			c-0.9,0-1.6-0.6-1.7-1.5l-0.2-2h16c0.2,0,0.4-0.2,0.4-0.4l1.2-10C23,4.3,23,4.2,22.9,4.1z M19.4,21.2c0,0.5-0.4,0.9-1,0.9
			c-0.5,0-1-0.4-1-0.9c0-0.5,0.4-0.9,1-0.9h0L18.1,21c-0.1,0.2,0,0.5,0.2,0.6c0.1,0,0.1,0.1,0.2,0.1c0.2,0,0.3-0.1,0.4-0.2l0.4-0.7
			C19.4,20.8,19.4,21,19.4,21.2z M9.4,21.2c0,0.5-0.4,0.9-1,0.9c-0.5,0-1-0.4-1-0.9c0-0.5,0.4-0.9,1-0.9h0L8,21
			c-0.1,0.2,0,0.5,0.2,0.6c0.1,0,0.1,0.1,0.2,0.1c0.2,0,0.3-0.1,0.4-0.2l0.4-0.7C9.3,20.8,9.4,21,9.4,21.2z M5.3,13.9L4.1,4.8h2.4
			l0.7,9.1H5.3z M8.2,13.9L7.5,4.8h3l0.3,9.1H8.2z M14.6,13.9h-3l-0.3-9.1h3.5L14.6,13.9z M18,13.9h-2.5l0.3-9.1h3L18,13.9z
			 M20.9,13.9h-2l0.7-9.1h2.4L20.9,13.9z"/>
	</g>
</g>
</svg>
