<svg xmlns="http://www.w3.org/2000/svg" width="216.2" height="179" viewBox="1295.2 -88 216.2 179"><title>Cozy place</title><path fill="#FFF" fill-opacity="0" d="M1295.2-88h216.2V91h-216.2z"/><g fill="#888"><path d="M1423 25.53l-18.81-6.13c-.42-.16-.87-.26-1.32-.29-.45.03-.89.13-1.31.29l-18.81 6.13-19.14-6.09 31.81-24.69-6.73-9.15c-2.97-4.33-1.86-10.25 2.47-13.22.32-.22.65-.41.99-.59l26.82-13c1.52-.74 3.17-1.18 4.86-1.3 4.76 0 8.29 3.36 8.95 6.61 1.21 6-1.88 8.88-4.68 10.28l-17.77 9 26 37.7-13.33 4.45zm-48.81-8l8.54 2.72 17.27-5.6c1.84-.71 3.89-.71 5.73 0l17.27 5.61 5.49-1.83L1403-18.51l22.9-11.57c2-1 2.54-2.34 2-4.82a4.187 4.187 0 0 0-4-2.61c-.92.13-1.82.4-2.67.79l-26.85 13a4.53 4.53 0 0 0-1.68 6.18c.03.05.05.09.08.14l9.63 13.08-28.22 21.85z"/><path d="M1436.44 9.46c-8.79 0-15.92-7.13-15.92-15.92s7.13-15.92 15.92-15.92 15.92 7.13 15.92 15.92c-.01 8.79-7.13 15.91-15.92 15.92zm0-26.83c-6.03 0-10.92 4.89-10.92 10.92s4.89 10.92 10.92 10.92 10.92-4.89 10.92-10.92a10.934 10.934 0 0 0-10.92-10.92zm-85.92 58.86c3.79-.95 9-1.26 12.41-3.1 1.56-.84-1.22.25-1.44-.11.16.26 1.67.56 1.93.65l7.87 2.65c3.44 1.16 8.08 3.77 11.82 3.46 3.9-.32 8.22-2.56 11.92-3.77l7-2.29a7.21 7.21 0 0 0 1.92-.63c.69-.55-2.13-.58-1.42 0 1.23 1 4.26 1.46 5.76 2l8.11 2.77c3.24 1.11 5.72 2.4 9.09 1.4 4.83-1.43 9.57-3.26 14.34-4.88 1.07-.28 2.12-.64 3.14-1.07 2.27-1.16-.63 1.2-1.17-.32.24.66 5.12 1.56 5.79 1.77l14.19 4.33c5.55 1.7 7.93-7 2.39-8.68L1452.26 32c-3.32-1-7.42-3.11-10.94-2.38-4.59 1-9.21 3.14-13.64 4.65-1.39.47-4.2.88-5.36 1.83-1.16.95 2.06.68 1.55 0-.3-.37-2-.67-2.4-.82-5.06-1.73-10.09-3.57-15.18-5.19-3.36-1.07-5.5-.2-8.78.86-4.78 1.56-10.43 2.58-14.91 4.86-.42.11-.83.24-1.23.4-.06-1.79 3.63.86 1.25-.35-2.14-1.09-4.79-1.62-7.06-2.38-4.21-1.42-9.74-4.55-14.28-4-4.37.52-8.86 2.21-13.14 3.28-5.62 1.4-3.24 10.09 2.39 8.68l-.01.05z"/></g></svg>